<svg width="0" height="0" class="hidden">
  <symbol xmlns="http://www.w3.org/2000/svg" viewBox="0 0 17 17" id="paint-bucket">
    <path d="M16.701 9.818L7.833.894l-.134.133A3.527 3.527 0 005.206 0h-.001c-.948 0-1.841.37-2.512 1.041a3.528 3.528 0 00-1.042 2.514c0 .941.366 1.825 1.027 2.493L.47 8.257C.167 8.561 0 8.963 0 9.39c0 .429.166.83.467 1.13l4.811 4.859a1.59 1.59 0 001.131.469 1.59 1.59 0 001.133-.471L13.1 9.819l3.601-.001zM2.651 3.554c0-.682.266-1.323.749-1.806A2.538 2.538 0 015.205 1h.001c.674 0 1.306.262 1.786.734L3.386 5.341a2.532 2.532 0 01-.735-1.787zm4.182 11.117a.6.6 0 01-.847.003L2.35 11h8.154l-3.671 3.671zM11.504 10H1.359l-.183-.186a.602.602 0 01.001-.85L7.831 2.31l6.468 6.509-1.614.001L11.504 10zm4.184 1.959l-.407-.604-.418.598c-.319.457-1.363 2.011-1.363 2.798 0 .965.785 1.75 1.75 1.75S17 15.715 17 14.75c0-.782-1.004-2.334-1.312-2.791zM15.25 15.5a.752.752 0 01-.75-.75c0-.24.349-.92.766-1.591.4.67.734 1.349.734 1.591 0 .413-.337.75-.75.75z"></path>
  </symbol>
  <symbol xmlns="http://www.w3.org/2000/svg" viewBox="0 0 17 17" id="palette">
    <path d="M8.5.5c-4.411 0-8 3.589-8 8a7.98 7.98 0 007.631 7.982l1.288.059-2.723-2.723c-.283-.283-.439-.66-.439-1.061s.156-.777.439-1.061c.566-.566 1.555-.566 2.121 0l3.719 3.719.34-.223A7.977 7.977 0 0016.5 8.5c0-4.411-3.589-8-8-8zm4.16 13.625L9.525 10.99c-.943-.944-2.592-.944-3.535 0-.472.472-.732 1.1-.732 1.768s.26 1.296.732 1.768l.741.741A6.982 6.982 0 011.5 8.5c0-3.86 3.14-7 7-7s7 3.14 7 7a6.979 6.979 0 01-2.84 5.625zM11.5 6.5c-1.103 0-2 .897-2 2s.897 2 2 2 2-.897 2-2-.897-2-2-2zm0 3c-.551 0-1-.449-1-1s.449-1 1-1 1 .449 1 1-.449 1-1 1zM8.5 6a1.5 1.5 0 110-3 1.5 1.5 0 010 3zm-2.75-.109a1 1 0 11-2 0 1 1 0 012 0z"></path>
  </symbol>
  <symbol xmlns="http://www.w3.org/2000/svg" viewBox="0 0 17 17" id="hummer">
    <path d="M9 4h5.625l-3.609-4H4v4h4v3.723H6.875V17h3.25V7.723H9V4zM5 1h5.571l1.805 2H5V1zm4.125 15h-1.25V8.723h1.25V16z"></path>
  </symbol>
</svg>